<?xml version="1.0" standalone="no"?>
<!DOCTYPE svg PUBLIC "-//W3C//DTD SVG 20010904//EN"
 "http://www.w3.org/TR/2001/REC-SVG-20010904/DTD/svg10.dtd">
<svg version="1.0" xmlns="http://www.w3.org/2000/svg"
 width="225.000000pt" height="225.000000pt" viewBox="0 0 225.000000 225.000000"
 preserveAspectRatio="xMidYMid meet">

<g transform="translate(0.000000,225.000000) scale(0.100000,-0.100000)"
fill="#000000" stroke="none">
<path d="M554 2233 c-49 -50 -123 -188 -158 -299 -58 -182 -62 -380 -10 -535
l29 -86 -32 -44 c-47 -64 -109 -195 -127 -264 -9 -34 -18 -94 -22 -135 -3 -41
-13 -97 -21 -124 -11 -33 -14 -73 -11 -127 4 -65 11 -91 42 -155 150 -303 617
-511 1021 -454 261 37 479 142 632 303 97 103 145 199 151 306 3 54 0 94 -11
127 -8 27 -18 83 -21 124 -4 41 -13 101 -22 135 -18 69 -80 200 -127 264 l-32
44 29 86 c52 155 48 353 -10 535 -39 121 -136 297 -173 311 -23 9 -102 -76
-144 -154 -58 -107 -79 -202 -80 -356 l0 -130 -33 70 c-19 39 -40 74 -47 79
-8 5 -31 -1 -63 -17 l-49 -25 -67 65 c-77 74 -74 74 -157 -11 l-54 -55 -51 26
c-32 16 -55 22 -63 17 -7 -5 -28 -40 -47 -79 l-33 -70 0 130 c-1 153 -23 251
-79 354 -32 60 -118 161 -135 161 -4 0 -15 -8 -25 -17z m122 -187 c51 -106 68
-196 61 -340 -4 -93 -11 -142 -32 -211 -16 -49 -30 -105 -33 -123 -4 -31 -2
-33 19 -30 19 2 28 15 43 56 10 29 25 52 33 52 8 0 37 50 70 121 62 131 57
128 130 98 33 -13 33 -13 91 44 32 31 62 57 67 57 5 0 35 -26 67 -57 58 -57
58 -57 91 -44 73 30 69 33 128 -94 29 -64 62 -123 73 -131 11 -8 27 -33 36
-56 11 -32 22 -44 39 -46 21 -3 23 -1 19 30 -3 18 -17 74 -33 123 -36 120 -46
297 -21 407 19 86 70 197 114 248 l30 35 41 -65 c85 -134 131 -295 132 -461 0
-153 -18 -249 -63 -325 -26 -45 -21 -79 12 -78 29 1 37 -8 85 -98 56 -105 76
-173 82 -279 5 -81 2 -107 -15 -165 -68 -218 -262 -384 -539 -461 -90 -25
-113 -27 -278 -27 -165 0 -188 2 -278 27 -277 77 -471 243 -539 461 -17 58
-20 84 -15 165 6 106 26 174 82 279 48 90 56 99 85 98 33 -1 38 33 12 78 -45
76 -63 172 -63 325 1 166 47 327 132 461 l41 65 30 -35 c17 -19 45 -66 64
-104z m-261 -1611 c237 -239 621 -332 994 -239 242 61 456 218 549 404 l42 85
0 -48 c0 -138 -113 -298 -294 -416 -340 -222 -822 -222 -1162 0 -181 118 -294
278 -294 416 l0 48 42 -85 c33 -65 61 -104 123 -165z"/>
<path d="M524 1798 c-62 -97 -69 -124 -69 -253 0 -106 3 -125 23 -165 27 -52
70 -100 88 -100 17 0 64 71 94 140 35 82 40 215 10 293 -25 67 -73 127 -101
127 -11 0 -29 -17 -45 -42z"/>
<path d="M1633 1806 c-17 -19 -41 -61 -53 -93 -30 -78 -25 -211 10 -293 30
-69 77 -140 94 -140 18 0 61 49 87 100 19 35 24 65 27 141 5 112 -10 175 -61
259 -41 68 -63 74 -104 26z"/>
<path d="M615 907 c-79 -44 -110 -159 -64 -233 76 -124 252 -106 305 31 55
144 -106 279 -241 202z m41 -89 c7 -24 -19 -50 -42 -41 -14 5 -19 44 -7 56 14
15 42 6 49 -15z"/>
<path d="M1485 916 c-74 -34 -118 -123 -96 -196 26 -87 102 -138 188 -126 148
20 196 211 77 302 -40 31 -124 41 -169 20z m23 -99 c6 -28 -16 -49 -39 -36
-19 10 -25 39 -12 53 13 13 48 1 51 -17z"/>
<path d="M1045 656 c-25 -18 -13 -44 25 -57 19 -7 30 -18 30 -30 0 -25 -35
-59 -60 -59 -24 0 -60 34 -60 56 0 26 -44 13 -48 -15 -5 -34 16 -68 53 -86 41
-19 72 -19 109 0 26 14 33 14 62 0 41 -19 68 -19 109 0 37 18 58 52 53 86 -4
28 -48 41 -48 15 0 -22 -36 -56 -60 -56 -25 0 -60 34 -60 59 0 12 11 23 30 30
17 5 33 18 37 27 10 27 -24 44 -92 44 -36 0 -69 -6 -80 -14z"/>
</g>
</svg>
